<?xml version="1.0" standalone="no"?>
<!DOCTYPE svg PUBLIC "-//W3C//DTD SVG 20010904//EN"
 "http://www.w3.org/TR/2001/REC-SVG-20010904/DTD/svg10.dtd">
<svg version="1.0" xmlns="http://www.w3.org/2000/svg"
 width="468.000000pt" height="102.000000pt" viewBox="0 0 468.000000 102.000000"
 preserveAspectRatio="xMidYMid meet">

<g transform="translate(0.000000,102.000000) scale(0.100000,-0.100000)"
fill="#fff" stroke="none">
<path d="M60 912 c0 -4 19 -27 43 -50 l43 -42 532 0 c376 0 532 -3 532 -11 0
-6 -10 -64 -22 -129 -11 -64 -18 -125 -15 -134 7 -17 71 -23 94 -8 7 4 22 61
33 127 30 168 22 155 89 155 68 0 84 13 79 62 l-3 33 -702 3 c-387 1 -703 -1
-703 -6z"/>
<path d="M1522 908 c-13 -17 -75 -346 -68 -364 7 -18 92 -19 102 -2 4 7 10 28
14 48 5 34 6 35 56 38 l50 3 28 -51 27 -50 54 0 c30 0 57 5 60 11 4 6 -3 30
-16 54 l-23 43 31 26 c53 44 74 190 34 230 -20 19 -34 21 -179 24 -123 3 -161
0 -170 -10z m250 -128 c-5 -49 -24 -60 -104 -60 -75 0 -75 1 -62 69 l7 32 81
-3 81 -3 -3 -35z"/>
<path d="M1972 908 c-5 -7 -21 -78 -36 -157 -37 -207 -28 -221 162 -221 126 0
170 12 198 55 17 27 76 313 67 328 -7 12 -91 8 -100 -5 -4 -7 -19 -71 -33
-143 l-25 -130 -88 -3 c-64 -2 -87 0 -87 10 0 6 10 65 21 130 12 65 19 124 15
133 -7 19 -79 21 -94 3z"/>
<path d="M2430 898 c-13 -31 -69 -351 -63 -360 2 -5 81 -8 174 -8 l169 0 10
26 c6 14 10 36 10 50 l0 24 -113 0 c-63 0 -116 3 -119 6 -3 3 -4 14 -1 25 5
17 15 19 103 19 106 0 109 2 110 68 0 21 -3 22 -96 22 -93 0 -95 1 -92 23 3
21 7 22 125 25 l122 3 9 42 c5 23 7 45 5 50 -2 4 -81 7 -174 7 -166 0 -170 0
-179 -22z"/>
<path d="M1602 458 c-5 -7 -12 -29 -14 -48 l-3 -35 63 -3 c34 -2 62 -6 62 -10
0 -4 -11 -65 -24 -137 -14 -71 -22 -133 -20 -137 8 -13 91 -9 102 5 6 6 21 70
34 142 l23 130 62 3 c69 3 87 19 81 70 l-3 27 -176 3 c-133 2 -179 -1 -187
-10z"/>
<path d="M2023 462 c-14 -9 -78 -345 -69 -368 4 -11 18 -14 53 -12 48 3 48 3
59 48 l11 45 49 3 49 3 25 -48 c25 -47 26 -48 79 -51 72 -4 79 6 48 62 l-25
45 25 16 c30 20 50 64 59 133 15 117 -9 132 -208 132 -79 0 -148 -4 -155 -8z
m247 -126 c0 -53 -20 -66 -100 -66 -38 0 -71 3 -73 8 -2 4 0 26 5 50 l9 42 80
0 79 0 0 -34z"/>
<path d="M2624 460 c-25 -10 -257 -357 -249 -371 4 -5 30 -9 60 -9 43 0 57 4
68 21 14 18 25 21 108 21 85 0 94 -2 103 -21 7 -17 18 -21 58 -21 36 0 50 4
55 17 9 23 -104 360 -123 367 -21 8 -55 6 -80 -4z m47 -220 c5 -19 1 -20 -51
-20 l-41 0 32 47 33 47 12 -29 c7 -17 14 -37 15 -45z"/>
<path d="M2971 452 c-47 -25 -66 -68 -87 -194 -27 -164 -12 -178 183 -178 113
0 114 0 123 26 6 14 10 36 10 50 0 24 0 24 -106 24 l-106 0 7 48 c4 26 11 68
17 95 l10 47 103 0 c95 0 105 2 115 20 6 12 10 33 8 48 l-3 27 -120 3 c-101 2
-125 0 -154 -16z"/>
<path d="M3312 458 c-12 -17 -74 -356 -67 -368 9 -14 89 -12 103 2 7 7 12 19
12 28 0 9 13 28 28 43 l29 28 39 -53 40 -53 507 -3 507 -2 45 41 c25 23 45 45
45 50 0 5 -233 10 -517 11 l-517 3 -30 43 -30 42 92 93 c51 51 92 96 92 100 0
4 -28 7 -61 7 l-61 0 -82 -80 c-45 -44 -85 -80 -88 -80 -3 0 0 32 8 71 7 40
11 76 8 80 -8 14 -90 11 -102 -3z"/>
</g>
</svg>
